<svg width="120" height="120" viewBox="0 0 120 120" fill="none" xmlns="http://www.w3.org/2000/svg">
<path fill-rule="evenodd" clip-rule="evenodd" d="M59.5 67.5C67.5081 67.5 74 64.2541 74 60.25C74 60.1663 73.9972 60.083 73.9915 60H120V120H0V60H45.0085C45.0028 60.083 45 60.1663 45 60.25C45 64.2541 51.4919 67.5 59.5 67.5Z" fill="#664FF0"/>
<path d="M91.8146 87.972L84.0746 114H79.3586L74.8586 98.412L70.3226 114H65.6786L57.9206 87.972H63.8786L68.3246 103.542L72.6806 87.972H77.0366L81.5006 103.542L85.8566 87.972H91.8146ZM89.3717 114L98.6237 87.972H104.978L114.248 114H108.164L106.238 108.456H97.4537L95.4917 114H89.3717ZM98.7857 103.182H104.834L101.828 93.858L98.7857 103.182Z" fill="white"/>
<path fill-rule="evenodd" clip-rule="evenodd" d="M120 0H0V60H45.0085C45.0028 60.166 45 60.3327 45 60.5C45 68.5081 51.4919 75 59.5 75C67.5081 75 74 68.5081 74 60.5C74 60.3327 73.9972 60.166 73.9915 60H120V0Z" fill="#F0664F"/>
<path d="M90.275 43.65C90.275 45.81 89.927 47.694 89.231 49.302C88.535 50.91 87.395 52.158 85.811 53.046C84.227 53.922 82.103 54.36 79.439 54.36C76.775 54.36 74.651 53.916 73.067 53.028C71.495 52.14 70.361 50.892 69.665 49.284C68.969 47.664 68.621 45.762 68.621 43.578V27.972H74.849V43.92C74.849 45.792 75.287 47.142 76.163 47.97C77.051 48.786 78.143 49.194 79.439 49.194C80.735 49.194 81.827 48.786 82.715 47.97C83.615 47.142 84.065 45.792 84.065 43.92V27.972H90.275V43.65ZM93.0417 33.39V27.972H114.372V33.39H106.812V54H100.656V33.39H93.0417Z" fill="white"/>
</svg>
